<?xml version="1.0" encoding="utf-8"?>
<!-- Generator: Adobe Illustrator 16.2.0, SVG Export Plug-In . SVG Version: 6.00 Build 0)  -->
<!DOCTYPE svg PUBLIC "-//W3C//DTD SVG 1.1//EN" "http://www.w3.org/Graphics/SVG/1.1/DTD/svg11.dtd">
<svg version="1.1" id="Слой_1" xmlns="http://www.w3.org/2000/svg" xmlns:xlink="http://www.w3.org/1999/xlink" x="0px" y="0px"
	 width="60px" height="18px" viewBox="0 0 60 18" enable-background="new 0 0 60 18" xml:space="preserve">
<g>
	<path fill-rule="evenodd" clip-rule="evenodd" fill="#868686" d="M17.521,0.039c-2.389,0.417-4.736,1.129-6.735,2.067
		c-1.051,0.498-1.962,1-2.855,1.588C6.834,4.411,6.608,4.688,5.764,5.403C5.656,5.493,5.577,5.56,5.487,5.663
		c-0.195,0.228-0.361,0.35-0.554,0.563C4.763,6.416,4.591,6.643,4.424,6.833C4.09,7.208,3.776,7.668,3.468,8.115
		c-1.233,1.793-2.169,3.939-2.78,6.111c-0.21,0.748-0.77,3.02-0.679,3.773h17.521L17.521,0.039L17.521,0.039z"/>
	<path fill-rule="evenodd" clip-rule="evenodd" fill="#5D5D5D" d="M0.008,15.313c0.113-1.691,0.798-3.986,1.371-5.366
		C2.235,7.868,3.548,5.82,5.052,4.357C5.218,4.195,5.305,4.076,5.467,3.93c0.148-0.135,0.279-0.238,0.419-0.39
		C5.99,3.428,6.203,3.236,6.33,3.137l0.93-0.759c0.995-0.765,1.952-1.363,3.119-1.897c0.328-0.151,0.946-0.33,1.204-0.48H0.014
		L0.008,15.313L0.008,15.313z"/>
	<path fill-rule="evenodd" clip-rule="evenodd" fill="#FFFFFF" d="M32.672,11.094c1.309-0.234,1.908,0.902,2.01,2.077
		c0.055,0.616,0.02,1.298-0.219,1.814c-0.203,0.454-0.566,0.851-1.152,0.925c-1.323,0.173-1.961-0.88-2.059-2.106
		C31.145,12.48,31.508,11.301,32.672,11.094L32.672,11.094z M35.518,13.836c0.197-1.805-0.515-3.074-2.207-3.154
		c-1.754-0.089-2.755,0.779-2.907,2.478c-0.162,1.807,0.552,3.083,2.221,3.185C34.299,16.444,35.348,15.385,35.518,13.836
		L35.518,13.836z"/>
	<path fill-rule="evenodd" clip-rule="evenodd" fill="#FFFFFF" d="M39.701,10.775c0.238,0.553,0.201,2.361,0.176,3.099
		c-0.037,1.058-0.209,1.973-1.293,2.001c-1.213,0.029-1.338-0.807-1.34-1.963c-0.002-0.899-0.084-2.373,0.186-3.137l-1.087,0.002
		c0.688,2.291-0.911,5.66,1.935,5.572c1.158-0.035,1.486-0.722,1.646-0.832l-0.006,0.729l0.892-0.002
		c-0.293-0.733-0.217-3.231-0.186-4.239c0.021-0.583,0.035-0.742,0.18-1.229H39.701L39.701,10.775z"/>
	<path fill-rule="evenodd" clip-rule="evenodd" fill="#FFFFFF" d="M27.105,12.551c0-0.307,0.01-0.637,0.027-0.939
		c0.021-0.443-0.061-0.545,0.375-0.545c0.64,0,1.194,0.077,1.194,0.975c-0.002,1.123-0.729,1.313-1.574,1.235L27.105,12.551
		L27.105,12.551z M26.207,10.775c0.232,0.461,0.179,2.15,0.179,2.785c0,0.703,0.064,2.146-0.189,2.684h1.106
		c-0.197-0.484-0.264-2.023-0.18-2.632c0.531,0.004,0.64,0.312,0.858,0.632c0.214,0.311,0.398,0.574,0.618,0.889
		c0.8,1.129,0.517,1.18,1.814,1.109c-0.458-0.434-0.739-0.781-1.127-1.35l-1.022-1.48c1.147-0.429,1.535-1.613,1.063-2.267
		c-0.289-0.396-0.79-0.448-1.406-0.423C27.351,10.746,26.784,10.775,26.207,10.775L26.207,10.775z"/>
	<path fill-rule="evenodd" clip-rule="evenodd" fill="#FFFFFF" d="M24.273,15.858c-2.017,0.338-3.3-0.921-2.896-3.021
		c0.16-0.834,0.655-1.454,1.402-1.675c0.644-0.188,1.596-0.078,2.067,0.416c0.123,0.127,0.076,0.109,0.215,0.167l-0.021-0.983
		c-1.225-0.104-2.224-0.214-3.242,0.369c-1.863,1.065-1.798,4.168-0.002,4.945c1.096,0.473,2.171,0.174,3.353,0.129
		c-0.072-0.816-0.211-1.975,0.103-2.71H24.16c0.045,0.183,0.115,0.28,0.145,0.509C24.373,14.525,24.365,15.362,24.273,15.858
		L24.273,15.858z"/>
	<path fill-rule="evenodd" clip-rule="evenodd" fill="#FFFFFF" d="M41.799,10.775c0.228,0.408,0.175,2.191,0.175,2.785
		c0,0.633,0.068,2.232-0.187,2.684h1.107c-0.27-0.723-0.182-1.694-0.197-2.525c-0.008-0.418-0.012-2.354,0.094-2.616
		c0.33-0.138,0.988-0.048,1.244,0.132c0.277,0.195,0.398,0.59,0.371,1.075c-0.025,0.493-0.182,0.779-0.436,1.022
		c-0.31,0.295-0.599,0.284-1.057,0.353c0.811,0.548,2.625-0.011,2.314-1.886C44.979,10.282,43.143,10.771,41.799,10.775
		L41.799,10.775z"/>
	<path fill-rule="evenodd" clip-rule="evenodd" fill="#FFFFFF" d="M48.08,10.775c0.182,0.543,0.182,1.205,0.182,1.852
		c0,1,0.086,2.756-0.191,3.619l1.114-0.012c-0.222-0.39-0.2-1.459-0.2-2.008c0-0.612-0.031-2.738,0.089-3.143
		c0.692-0.054,1.619-0.159,1.619,1.076c0,1.127-0.565,1.432-1.494,1.521c0.212,0.161,0.552,0.187,0.839,0.187
		c1.847,0.003,2.221-3.225-0.037-3.173L48.08,10.775L48.08,10.775z"/>
	<path fill-rule="evenodd" clip-rule="evenodd" fill="#FFFFFF" d="M60,15.057c-0.221,0.135-0.383,0.441-0.995,0.59
		c-2.744,0.67-3.317-3.543-1.481-4.41c0.378-0.178,0.924-0.254,1.355-0.096c0.498,0.188,0.516,0.42,0.781,0.787l0.031-1.152
		c-1.373-0.074-2.116-0.302-3.143,0.515c-0.66,0.525-1.068,1.683-0.852,2.931C56.144,16.829,59.496,16.972,60,15.057L60,15.057z"/>
	<path fill-rule="evenodd" clip-rule="evenodd" fill="#FFFFFF" d="M52.19,10.775c0.228,0.442,0.181,2.167,0.181,2.785
		c0,0.701,0.064,2.146-0.194,2.678c0.45,0.037,2.476,0.058,2.793-0.049c0.108-0.185,0.163-0.567,0.19-0.813l-0.114,0.102
		c-0.215,0.214-0.351,0.315-0.69,0.386c-0.258,0.056-0.948,0.117-1.189,0.029c-0.104-0.758-0.072-1.809-0.072-2.602
		c-0.002-0.868-0.033-1.737,0.186-2.516H52.19L52.19,10.775z"/>
	<path fill-rule="evenodd" clip-rule="evenodd" fill="#FFFFFF" d="M13.018,12.469c0,0.837,0.08,3.066-0.184,3.701
		c0.285,0.002,2.865,0.111,3.158-0.072l0.117-0.715c-0.16,0.067-0.084,0.049-0.218,0.162c-0.435,0.363-1.688,0.388-2.104,0.313
		c-0.098-0.733-0.066-1.57-0.068-2.325c0.788,0.025,1.585,0.034,2.013-0.463c-0.71,0.053-1.27,0.087-2.013,0.07
		c0-0.61-0.033-1.486,0.076-2.057c0.218-0.047,0.891-0.011,1.129,0.012c0.419,0.039,0.603,0.095,0.813,0.363l-0.049-0.703
		l-2.852,0.014C13.014,11.301,13.018,11.855,13.018,12.469L13.018,12.469z"/>
	<path fill-rule="evenodd" clip-rule="evenodd" fill="#FFFFFF" d="M10.496,11.207c0.624-0.037,1.379,0.113,1.726-0.255
		c0.094-0.102,0.066-0.05,0.117-0.177l-4.151,0.016l-0.166,0.611c0.507-0.257,1.042-0.178,1.664-0.178
		c0.018,1.229,0.207,3.934-0.132,4.965l1.063-0.014c-0.238-0.561-0.179-1.729-0.179-2.419C10.437,13.27,10.4,11.566,10.496,11.207
		L10.496,11.207z"/>
	<path fill-rule="evenodd" clip-rule="evenodd" fill="#FFFFFF" d="M6.283,16.188h1.063c-0.242-0.818-0.178-1.801-0.178-2.701
		c0-0.911-0.057-1.879,0.168-2.711H6.294c0.228,0.749,0.169,1.865,0.169,2.711C6.464,14.373,6.538,15.389,6.283,16.188L6.283,16.188
		z"/>
</g>
</svg>
