<?xml version="1.0" encoding="utf-8"?>
<!-- Generator: Adobe Illustrator 16.2.0, SVG Export Plug-In . SVG Version: 6.00 Build 0)  -->
<!DOCTYPE svg PUBLIC "-//W3C//DTD SVG 1.1//EN" "http://www.w3.org/Graphics/SVG/1.1/DTD/svg11.dtd">
<svg version="1.1" id="Слой_1" xmlns="http://www.w3.org/2000/svg" xmlns:xlink="http://www.w3.org/1999/xlink" x="0px" y="0px"
	 width="200px" height="45px" viewBox="0 0 200 45" enable-background="new 0 0 200 45" xml:space="preserve">
<g>
	<path fill-rule="evenodd" clip-rule="evenodd" fill="#FFFFFF" d="M29.492,17.068c-1.5,0.871-2.969,1.732-4.445,2.583
		c-0.486,0.285-0.835-0.12-1.198-0.323c-4.338-2.48-8.68-4.952-12.994-7.48c-0.723-0.422-1.256-0.412-1.943,0.023
		c-1.235,0.804-2.935,1.25-3.678,2.355c-0.753,1.115-0.211,2.858-0.219,4.324C5,24.135,5.012,29.713,5.012,35.294
		c0,0.435,0,0.872,0,1.579c-1.693-0.985-3.236-1.862-4.764-2.757c-0.333-0.198-0.233-0.577-0.233-0.884c0-6.773,0-13.546,0-20.325
		c0-1.094,0.478-1.906,1.426-2.452c2.363-1.354,4.721-2.702,7.072-4.054c0.879-0.499,1.766-0.507,2.629-0.007
		c6.03,3.455,12.062,6.928,18.085,10.396C29.295,16.828,29.338,16.902,29.492,17.068z M16.01,3.414
		c5.236,3.007,10.406,6.127,15.733,8.951c2.244,1.189,3.53,2.5,2.967,5.113c-0.081,0.383-0.057,0.803,0,1.19
		c0.1,0.79-0.237,1.216-0.922,1.6C30.407,22.16,27.049,24.1,23.7,26.053c-1.272,0.742-3.063,1.13-3.651,2.341
		c-0.583,1.205-0.167,2.886-0.186,4.358c-0.006,0.076,0.003,0.158,0,0.238c-0.079,0.811,0.263,0.736,0.811,0.418
		c5.852-3.371,11.714-6.734,17.565-10.098c0.946-0.549,1.415-1.33,1.405-2.445c-0.032-2.677-0.027-5.342,0-8.012
		c0.009-1.068-0.425-1.848-1.33-2.371C32.35,7.066,26.382,3.647,20.423,0.228c-0.321-0.188-0.597-0.341-0.988-0.114
		c-1.431,0.854-2.887,1.68-4.515,2.619C15.406,3.044,15.705,3.238,16.01,3.414z M14.945,24.875c0-1.328,0-2.652-0.009-3.98
		c-0.002-0.416,0.175-0.94-0.286-1.208c-1.487-0.888-3.006-1.733-4.545-2.61c-0.075,0.247-0.119,0.321-0.119,0.398
		c0,1.461,0,2.927,0,4.39L14.945,24.875z M39.632,28.542c-0.463-0.073-0.663,0.159-0.895,0.295
		c-5.478,3.138-11.006,6.192-16.404,9.476c-1.785,1.085-3.224,1.418-4.874,0c-0.452-0.383-1.015-0.656-1.565-0.891
		c-0.786-0.335-0.948-0.896-0.948-1.699c0.01-2.197,0.01-4.393,0.006-6.59l-4.968-2.9c-0.003,4.016-0.007,8.029-0.007,12.039
		c0,1.012,0.493,1.74,1.361,2.237c2.349,1.351,4.712,2.698,7.063,4.063c0.953,0.553,1.878,0.579,2.845,0.025
		c5.918-3.408,11.843-6.806,17.77-10.208c0.322-0.18,0.623-0.336,0.621-0.78C39.621,31.912,39.632,30.216,39.632,28.542z"/>
	<g>
		<g>
			<path fill="#FFFFFF" d="M50.455,24.935V11.426h3.503v7.961l5.495-7.961h3.619v13.509h-3.516v-8.344l-5.722,8.344H50.455z"/>
			<path fill="#FFFFFF" d="M74.662,24.935V19.51h-5.64v5.425h-3.5V11.426h3.5v5.041h5.64v-5.041h3.497v13.509H74.662z"/>
			<path fill="#FFFFFF" d="M86.575,24.935v-1.374c-4.194-0.384-6.655-2.213-6.655-5.372c0-3.138,2.461-4.982,6.655-5.365v-1.397
				h3.523v1.397c4.189,0.383,6.652,2.228,6.652,5.365c0,3.183-2.463,4.988-6.652,5.372v1.374H86.575z M86.575,20.459v-4.54
				c-2.053,0.263-3.092,1.036-3.092,2.27C83.482,19.444,84.522,20.194,86.575,20.459z M90.098,15.919v4.54
				c2.052-0.265,3.088-1.015,3.088-2.271C93.186,16.955,92.15,16.182,90.098,15.919z"/>
			<path fill="#FFFFFF" d="M97.837,18.188c0-4.112,3.115-6.985,7.262-6.985c4.156,0,7.252,2.873,7.252,6.985
				c0,4.114-3.096,6.994-7.252,6.994C100.953,25.183,97.837,22.303,97.837,18.188z M108.787,18.188c0-2.208-1.443-3.907-3.688-3.907
				c-2.258,0-3.703,1.699-3.703,3.907c0,2.19,1.445,3.912,3.703,3.912C107.344,22.101,108.787,20.379,108.787,18.188z"/>
			<path fill="#FFFFFF" d="M114.127,24.935V11.426h6.795c3.055,0,4.723,2.048,4.723,4.493c0,2.435-1.668,4.479-4.723,4.479h-3.297
				v4.536H114.127z M122.082,15.919c0-0.929-0.691-1.455-1.627-1.455h-2.83v2.897h2.83
				C121.391,17.361,122.082,16.834,122.082,15.919z"/>
			<path fill="#FFFFFF" d="M139.125,24.935v-8.788l-3.438,8.788h-1.551l-3.422-8.788v8.788h-3.496V11.426h4.865l2.826,7.332
				l2.85-7.332h4.863v13.509H139.125z"/>
			<path fill="#FFFFFF" d="M143.734,24.146l1.383-2.714c0.467,0.342,1.08,0.669,1.754,0.669c0.873,0,1.258-0.327,1.67-1.013
				l-4.908-9.662h3.947l2.932,6.315l2.949-6.315h3.949l-5.516,10.855c-0.852,1.659-2.217,2.901-4.721,2.901
				C145.869,25.183,144.568,24.818,143.734,24.146z"/>
			<path fill="#FFFFFF" d="M167.551,24.935V14.464h-5.639v10.471h-3.498V11.426h12.637v13.509H167.551z"/>
			<path fill="#FFFFFF" d="M182.723,24.935l-0.674-1.944h-5.35l-0.67,1.944h-3.971l5.105-13.509h4.398l5.125,13.509H182.723z
				 M179.363,14.865l-1.73,5.089h3.461L179.363,14.865z"/>
			<path fill="#FFFFFF" d="M195.67,24.935l-3.561-5.08l-0.912,1.131v3.949h-3.504V11.426h3.504v5.546l4.174-5.546h4.311
				l-5.271,6.315l5.555,7.193H195.67z"/>
		</g>
		<path fill="#FFFFFF" d="M54.251,38.182c-0.412,0-0.776-0.045-1.116-0.121c-0.329-0.075-0.627-0.178-0.893-0.318
			c-0.257-0.147-0.49-0.318-0.681-0.515c-0.186-0.196-0.341-0.413-0.467-0.647c-0.124-0.244-0.215-0.497-0.277-0.772
			c-0.06-0.274-0.092-0.56-0.092-0.848c0-0.292,0.034-0.563,0.092-0.843c0.065-0.269,0.161-0.529,0.289-0.764
			c0.136-0.238,0.292-0.455,0.486-0.652c0.192-0.201,0.421-0.371,0.682-0.511c0.265-0.146,0.558-0.257,0.889-0.331
			c0.324-0.082,0.688-0.119,1.088-0.119c0.406,0,0.781,0.037,1.114,0.109c0.333,0.082,0.632,0.188,0.893,0.328
			c0.259,0.142,0.485,0.311,0.676,0.504c0.189,0.201,0.347,0.416,0.47,0.656c0.13,0.236,0.221,0.49,0.281,0.764
			c0.064,0.275,0.09,0.563,0.09,0.858c0,0.285-0.025,0.565-0.094,0.831c-0.061,0.279-0.159,0.535-0.29,0.769
			c-0.128,0.241-0.287,0.465-0.479,0.655c-0.198,0.204-0.425,0.367-0.684,0.516c-0.262,0.138-0.563,0.254-0.89,0.33
			C55.012,38.137,54.651,38.182,54.251,38.182z M54.251,37.096c0.251,0,0.483-0.023,0.684-0.082c0.2-0.051,0.378-0.122,0.535-0.213
			c0.157-0.097,0.292-0.21,0.406-0.338c0.105-0.137,0.205-0.276,0.274-0.442c0.067-0.153,0.119-0.319,0.157-0.507
			c0.035-0.175,0.05-0.362,0.05-0.554c0-0.194-0.015-0.379-0.05-0.563c-0.038-0.186-0.09-0.35-0.157-0.5
			c-0.07-0.165-0.169-0.309-0.274-0.44c-0.114-0.132-0.249-0.245-0.406-0.341c-0.156-0.088-0.335-0.167-0.535-0.217
			c-0.2-0.051-0.433-0.076-0.684-0.076c-0.253,0-0.479,0.025-0.684,0.076c-0.2,0.05-0.382,0.129-0.534,0.217
			c-0.157,0.096-0.295,0.209-0.403,0.341c-0.108,0.132-0.202,0.275-0.275,0.44c-0.07,0.15-0.125,0.314-0.155,0.5
			c-0.04,0.185-0.055,0.369-0.055,0.563c0,0.191,0.015,0.379,0.055,0.554c0.03,0.188,0.085,0.354,0.155,0.507
			c0.073,0.166,0.167,0.306,0.275,0.442c0.107,0.128,0.246,0.241,0.403,0.338c0.151,0.091,0.333,0.162,0.534,0.213
			C53.772,37.072,53.998,37.096,54.251,37.096z M62.54,38.047v-5.172h-2.276v-1.004h5.943v1.004h-2.282v5.172H62.54z M69.115,38.047
			v-6.176h2.741c0.322,0,0.608,0.016,0.879,0.053c0.259,0.037,0.499,0.092,0.715,0.168c0.217,0.072,0.403,0.164,0.566,0.27
			c0.166,0.117,0.299,0.246,0.41,0.397c0.107,0.154,0.188,0.318,0.249,0.505c0.055,0.192,0.082,0.398,0.082,0.633
			c0,0.221-0.027,0.425-0.082,0.613c-0.061,0.19-0.146,0.356-0.26,0.503c-0.109,0.154-0.248,0.29-0.418,0.398
			c-0.165,0.114-0.362,0.209-0.584,0.29c-0.225,0.072-0.476,0.133-0.758,0.17c-0.282,0.038-0.587,0.056-0.921,0.056h-1.236v2.12
			H69.115z M71.652,34.922c0.311,0,0.573-0.021,0.789-0.056c0.211-0.047,0.381-0.105,0.518-0.194c0.13-0.09,0.224-0.192,0.286-0.317
			c0.049-0.134,0.082-0.286,0.082-0.458c0-0.182-0.033-0.324-0.082-0.451c-0.062-0.131-0.156-0.234-0.279-0.315
			c-0.127-0.088-0.291-0.145-0.49-0.187c-0.211-0.045-0.453-0.068-0.74-0.068h-1.236v2.047H71.652z M83.117,38.047l-0.669-1.281
			h-3.529l-0.665,1.281h-1.527l3.25-6.176h1.439l3.252,6.176H83.117z M81.175,34.164c-0.083-0.16-0.162-0.324-0.244-0.479
			c-0.08-0.159-0.158-0.321-0.241-0.484c-0.083,0.163-0.169,0.325-0.242,0.491c-0.086,0.162-0.166,0.32-0.248,0.479l-0.767,1.531
			h2.516L81.175,34.164z M92.833,37.779c-0.161,0.069-0.316,0.12-0.486,0.162c-0.162,0.053-0.34,0.098-0.527,0.13
			c-0.186,0.03-0.391,0.058-0.614,0.079c-0.222,0.02-0.479,0.031-0.765,0.031c-0.404,0-0.779-0.045-1.115-0.121
			c-0.336-0.075-0.635-0.178-0.888-0.318c-0.265-0.147-0.487-0.318-0.675-0.515c-0.194-0.196-0.352-0.413-0.477-0.647
			c-0.125-0.244-0.215-0.497-0.273-0.772c-0.061-0.274-0.09-0.56-0.09-0.848c0-0.292,0.031-0.563,0.094-0.843
			c0.066-0.269,0.158-0.529,0.285-0.764c0.131-0.238,0.29-0.455,0.482-0.652c0.197-0.201,0.424-0.371,0.684-0.511
			c0.26-0.146,0.555-0.257,0.885-0.331c0.328-0.082,0.691-0.119,1.088-0.119c0.239,0,0.475,0.006,0.688,0.031
			c0.219,0.024,0.422,0.059,0.62,0.099c0.19,0.038,0.368,0.091,0.543,0.146c0.157,0.057,0.315,0.113,0.452,0.175v1.079
			c-0.135-0.057-0.279-0.112-0.436-0.172c-0.166-0.056-0.336-0.107-0.521-0.149c-0.182-0.044-0.381-0.081-0.59-0.107
			c-0.205-0.028-0.43-0.038-0.66-0.038c-0.252,0-0.484,0.031-0.69,0.072c-0.208,0.051-0.394,0.119-0.554,0.211
			c-0.165,0.094-0.303,0.2-0.422,0.328c-0.123,0.135-0.229,0.281-0.303,0.439c-0.08,0.158-0.137,0.334-0.174,0.521
			c-0.045,0.184-0.061,0.379-0.061,0.585c0,0.191,0.016,0.379,0.056,0.554c0.036,0.188,0.089,0.357,0.165,0.518
			c0.076,0.159,0.174,0.305,0.291,0.439c0.115,0.13,0.256,0.246,0.423,0.344c0.159,0.093,0.345,0.166,0.56,0.225
			c0.209,0.054,0.441,0.076,0.709,0.076c0.189,0,0.383-0.01,0.583-0.032c0.198-0.011,0.395-0.04,0.593-0.071
			c0.199-0.037,0.388-0.074,0.579-0.129c0.19-0.043,0.372-0.094,0.542-0.154V37.779z M100.687,38.047v-5.172h-2.381l-0.026,0.551
			c-0.023,0.455-0.05,0.869-0.093,1.246c-0.044,0.376-0.093,0.721-0.151,1.029c-0.061,0.309-0.131,0.572-0.213,0.813
			c-0.076,0.246-0.17,0.459-0.273,0.637c-0.104,0.182-0.219,0.336-0.342,0.461c-0.129,0.131-0.266,0.237-0.414,0.314
			c-0.15,0.077-0.313,0.135-0.486,0.172c-0.174,0.039-0.367,0.053-0.572,0.053c-0.055,0-0.12,0-0.186-0.002
			c-0.062-0.012-0.134-0.02-0.202-0.031c-0.065-0.012-0.133-0.024-0.188-0.041c-0.064-0.016-0.119-0.037-0.162-0.061v-0.957
			c0.072,0.014,0.142,0.024,0.209,0.034c0.061,0.01,0.125,0.013,0.197,0.013c0.117,0,0.233-0.022,0.338-0.055
			c0.104-0.037,0.209-0.088,0.303-0.168c0.09-0.068,0.178-0.163,0.247-0.271c0.081-0.118,0.154-0.256,0.22-0.41
			c0.063-0.155,0.121-0.334,0.17-0.535c0.047-0.199,0.096-0.421,0.131-0.669c0.035-0.247,0.063-0.521,0.084-0.815
			c0.027-0.301,0.039-0.619,0.047-0.971l0.037-1.34h5.082v6.176H100.687z M105.619,38.047v-6.176h5.225v1.004h-3.838v1.502h3.293
			v1.002h-3.293v1.66h3.871v1.008H105.619z M114.092,38.047v-6.176h2.994c0.443,0,0.824,0.035,1.137,0.115
			c0.314,0.074,0.564,0.18,0.766,0.326c0.195,0.146,0.34,0.326,0.428,0.538c0.094,0.214,0.133,0.458,0.133,0.737
			c0,0.156-0.02,0.301-0.055,0.424c-0.039,0.127-0.098,0.242-0.17,0.346c-0.076,0.098-0.166,0.186-0.277,0.266
			c-0.104,0.077-0.227,0.143-0.363,0.196c0.203,0.072,0.377,0.141,0.527,0.237c0.16,0.088,0.291,0.191,0.396,0.313
			c0.111,0.125,0.191,0.256,0.248,0.404c0.061,0.15,0.088,0.319,0.088,0.494c0,0.169-0.021,0.333-0.063,0.484
			c-0.035,0.155-0.104,0.299-0.182,0.425c-0.084,0.135-0.195,0.258-0.332,0.36c-0.137,0.102-0.303,0.193-0.5,0.274
			c-0.193,0.071-0.418,0.125-0.678,0.173c-0.26,0.036-0.557,0.063-0.885,0.063H114.092z M116.967,34.426
			c0.193,0,0.369-0.016,0.51-0.049c0.156-0.041,0.275-0.098,0.373-0.166c0.1-0.068,0.174-0.157,0.221-0.254
			c0.051-0.098,0.074-0.202,0.074-0.33c0-0.121-0.023-0.225-0.074-0.326c-0.047-0.098-0.121-0.186-0.221-0.249
			c-0.098-0.066-0.217-0.12-0.373-0.153c-0.141-0.04-0.316-0.051-0.51-0.051h-1.498v1.578H116.967z M117.287,37.072
			c0.232,0,0.426-0.018,0.582-0.059c0.16-0.033,0.287-0.09,0.385-0.166c0.1-0.068,0.176-0.154,0.219-0.263
			c0.045-0.106,0.064-0.218,0.064-0.358c0-0.134-0.02-0.254-0.064-0.359c-0.043-0.102-0.119-0.197-0.219-0.271
			c-0.098-0.07-0.225-0.129-0.385-0.17c-0.156-0.039-0.35-0.061-0.582-0.061h-1.818v1.707H117.287z M126.293,38.182
			c-0.408,0-0.783-0.045-1.115-0.121c-0.33-0.075-0.633-0.178-0.891-0.318c-0.26-0.147-0.49-0.318-0.678-0.515
			c-0.191-0.196-0.35-0.413-0.475-0.647c-0.127-0.244-0.217-0.497-0.279-0.772c-0.057-0.274-0.094-0.56-0.094-0.848
			c0-0.292,0.037-0.563,0.104-0.843c0.057-0.269,0.158-0.529,0.287-0.764c0.127-0.238,0.287-0.455,0.484-0.652
			c0.189-0.201,0.418-0.371,0.686-0.511c0.258-0.146,0.553-0.257,0.881-0.331c0.326-0.082,0.691-0.119,1.09-0.119
			c0.412,0,0.779,0.037,1.115,0.109c0.332,0.082,0.629,0.188,0.887,0.328c0.266,0.142,0.49,0.311,0.68,0.504
			c0.191,0.201,0.348,0.416,0.473,0.656c0.131,0.236,0.217,0.49,0.277,0.764c0.066,0.275,0.096,0.563,0.096,0.858
			c0,0.285-0.035,0.565-0.098,0.831c-0.063,0.279-0.162,0.535-0.283,0.769c-0.135,0.241-0.295,0.465-0.488,0.655
			c-0.195,0.204-0.424,0.367-0.684,0.516c-0.262,0.138-0.555,0.254-0.887,0.33C127.055,38.137,126.689,38.182,126.293,38.182z
			 M126.293,37.096c0.256,0,0.479-0.023,0.684-0.082c0.203-0.051,0.383-0.122,0.533-0.213c0.158-0.097,0.291-0.21,0.4-0.338
			c0.117-0.137,0.211-0.276,0.281-0.442c0.072-0.153,0.117-0.319,0.154-0.507c0.037-0.175,0.051-0.362,0.051-0.554
			c0-0.194-0.014-0.379-0.051-0.563c-0.037-0.186-0.082-0.35-0.154-0.5c-0.07-0.165-0.164-0.309-0.281-0.44
			c-0.109-0.132-0.242-0.245-0.4-0.341c-0.15-0.088-0.33-0.167-0.533-0.217c-0.205-0.051-0.428-0.076-0.684-0.076
			c-0.254,0-0.477,0.025-0.686,0.076c-0.199,0.05-0.381,0.129-0.531,0.217c-0.16,0.096-0.293,0.209-0.408,0.341
			c-0.107,0.132-0.199,0.275-0.273,0.44c-0.068,0.15-0.121,0.314-0.16,0.5c-0.029,0.185-0.047,0.369-0.047,0.563
			c0,0.191,0.018,0.379,0.047,0.554c0.039,0.188,0.092,0.354,0.16,0.507c0.074,0.166,0.166,0.306,0.273,0.442
			c0.115,0.128,0.248,0.241,0.408,0.338c0.15,0.091,0.332,0.162,0.531,0.213C125.816,37.072,126.039,37.096,126.293,37.096z
			 M132.998,31.871h1.348v3.857c0,0.037,0,0.092,0,0.152c0,0.057,0,0.117,0,0.189c0,0.06,0,0.12,0,0.184c0,0.057,0,0.113,0,0.148
			c0.035-0.035,0.074-0.092,0.115-0.14c0.043-0.056,0.086-0.11,0.125-0.154c0.045-0.063,0.082-0.11,0.125-0.159
			c0.039-0.056,0.074-0.104,0.109-0.142l3.139-3.937h1.609v6.176h-1.344v-3.85c0-0.039,0-0.096,0-0.152c0-0.063,0-0.119,0-0.186
			c0-0.063,0-0.125,0-0.188s0-0.109,0-0.156c-0.037,0.047-0.08,0.094-0.117,0.146c-0.043,0.053-0.09,0.105-0.131,0.165
			c-0.043,0.054-0.086,0.103-0.123,0.155c-0.041,0.05-0.074,0.09-0.107,0.135l-3.137,3.93h-1.611V31.871z M137.867,30.121
			c-0.014,0.197-0.051,0.373-0.121,0.543c-0.068,0.17-0.168,0.312-0.301,0.445c-0.127,0.125-0.293,0.233-0.48,0.305
			c-0.199,0.072-0.426,0.109-0.684,0.109s-0.49-0.037-0.688-0.109c-0.184-0.071-0.35-0.18-0.477-0.305
			c-0.131-0.134-0.236-0.275-0.297-0.445c-0.076-0.17-0.113-0.346-0.131-0.543h0.838c0.023,0.068,0.057,0.133,0.098,0.197
			c0.039,0.06,0.094,0.113,0.152,0.16c0.064,0.043,0.139,0.082,0.219,0.106c0.082,0.027,0.182,0.042,0.285,0.042
			c0.109,0,0.197-0.015,0.285-0.042c0.084-0.024,0.152-0.063,0.215-0.106c0.066-0.047,0.117-0.101,0.154-0.16
			c0.047-0.064,0.074-0.129,0.098-0.197H137.867z M152.604,32.875h-3.467v5.172h-1.379v-6.176h6.223v6.176h-1.377V32.875z
			 M160.693,38.182c-0.41,0-0.783-0.045-1.117-0.121c-0.336-0.075-0.631-0.178-0.889-0.318c-0.26-0.147-0.488-0.318-0.682-0.515
			c-0.189-0.196-0.348-0.413-0.467-0.647c-0.129-0.244-0.219-0.497-0.283-0.772c-0.063-0.274-0.088-0.56-0.088-0.848
			c0-0.292,0.029-0.563,0.094-0.843c0.063-0.269,0.158-0.529,0.287-0.764c0.129-0.238,0.291-0.455,0.484-0.652
			c0.199-0.201,0.418-0.371,0.684-0.511c0.262-0.146,0.557-0.257,0.889-0.331c0.322-0.082,0.688-0.119,1.088-0.119
			c0.406,0,0.781,0.037,1.115,0.109c0.328,0.082,0.631,0.188,0.895,0.328c0.258,0.142,0.48,0.311,0.666,0.504
			c0.199,0.201,0.361,0.416,0.479,0.656c0.125,0.236,0.219,0.49,0.279,0.764c0.064,0.275,0.092,0.563,0.092,0.858
			c0,0.285-0.027,0.565-0.098,0.831c-0.057,0.279-0.16,0.535-0.281,0.769c-0.135,0.241-0.295,0.465-0.486,0.655
			c-0.193,0.204-0.426,0.367-0.688,0.516c-0.26,0.138-0.553,0.254-0.883,0.33S161.09,38.182,160.693,38.182z M160.693,37.096
			c0.256,0,0.479-0.023,0.684-0.082c0.203-0.051,0.381-0.122,0.535-0.213c0.158-0.097,0.287-0.21,0.4-0.338
			c0.115-0.137,0.207-0.276,0.277-0.442c0.07-0.153,0.125-0.319,0.156-0.507c0.033-0.175,0.053-0.362,0.053-0.554
			c0-0.194-0.02-0.379-0.053-0.563c-0.031-0.186-0.086-0.35-0.156-0.5c-0.07-0.165-0.162-0.309-0.277-0.44
			c-0.113-0.132-0.242-0.245-0.4-0.341c-0.154-0.088-0.332-0.167-0.535-0.217c-0.205-0.051-0.428-0.076-0.684-0.076
			c-0.254,0-0.479,0.025-0.684,0.076c-0.197,0.05-0.381,0.129-0.537,0.217c-0.156,0.096-0.293,0.209-0.404,0.341
			c-0.107,0.132-0.199,0.275-0.271,0.44c-0.072,0.15-0.131,0.314-0.158,0.5c-0.033,0.185-0.053,0.369-0.053,0.563
			c0,0.191,0.02,0.379,0.053,0.554c0.027,0.188,0.086,0.354,0.158,0.507c0.072,0.166,0.164,0.306,0.271,0.442
			c0.111,0.128,0.248,0.241,0.404,0.338c0.156,0.091,0.34,0.162,0.537,0.213C160.215,37.072,160.439,37.096,160.693,37.096z
			 M167.398,38.047v-6.176h2.75c0.314,0,0.602,0.016,0.867,0.053c0.264,0.037,0.504,0.092,0.723,0.168
			c0.211,0.072,0.402,0.164,0.563,0.27c0.158,0.117,0.303,0.246,0.41,0.397c0.109,0.154,0.197,0.318,0.25,0.505
			c0.057,0.192,0.082,0.398,0.082,0.633c0,0.221-0.025,0.425-0.082,0.613c-0.061,0.19-0.141,0.356-0.252,0.503
			c-0.115,0.154-0.258,0.29-0.418,0.398c-0.178,0.114-0.371,0.209-0.596,0.29c-0.223,0.072-0.475,0.133-0.75,0.17
			c-0.279,0.038-0.592,0.056-0.922,0.056h-1.244v2.12H167.398z M169.939,34.922c0.309,0,0.572-0.021,0.783-0.056
			c0.215-0.047,0.387-0.105,0.521-0.194c0.131-0.09,0.223-0.192,0.281-0.317c0.057-0.134,0.082-0.286,0.082-0.458
			c0-0.182-0.025-0.324-0.082-0.451c-0.059-0.131-0.143-0.234-0.275-0.315c-0.131-0.088-0.289-0.145-0.492-0.187
			c-0.203-0.045-0.445-0.068-0.734-0.068h-1.244v2.047H169.939z M177.734,38.047v-5.172h-2.281v-1.004h5.949v1.004h-2.289v5.172
			H177.734z M189.637,38.047l-0.67-1.281h-3.537l-0.654,1.281h-1.535l3.258-6.176h1.434l3.254,6.176H189.637z M187.693,34.164
			c-0.084-0.16-0.166-0.324-0.246-0.479c-0.084-0.159-0.162-0.321-0.242-0.484c-0.082,0.163-0.16,0.325-0.244,0.491
			c-0.086,0.162-0.16,0.32-0.242,0.479l-0.775,1.531h2.521L187.693,34.164z M198.621,38.047v-5.172h-2.381l-0.029,0.551
			c-0.016,0.455-0.049,0.869-0.092,1.246c-0.037,0.376-0.086,0.721-0.15,1.029c-0.057,0.309-0.129,0.572-0.211,0.813
			c-0.08,0.246-0.168,0.459-0.271,0.637c-0.1,0.182-0.217,0.336-0.342,0.461c-0.125,0.131-0.266,0.237-0.418,0.314
			c-0.146,0.077-0.311,0.135-0.488,0.172c-0.174,0.039-0.363,0.053-0.566,0.053c-0.057,0-0.121,0-0.188-0.002
			c-0.066-0.012-0.131-0.02-0.203-0.031c-0.064-0.012-0.129-0.024-0.189-0.041c-0.064-0.016-0.119-0.037-0.162-0.061v-0.957
			c0.076,0.014,0.15,0.024,0.207,0.034c0.07,0.01,0.129,0.013,0.199,0.013c0.125,0,0.238-0.022,0.342-0.055
			c0.105-0.037,0.205-0.088,0.293-0.168c0.098-0.068,0.178-0.163,0.258-0.271c0.078-0.118,0.15-0.256,0.217-0.41
			c0.063-0.155,0.119-0.334,0.17-0.535c0.047-0.199,0.09-0.421,0.131-0.669c0.033-0.247,0.066-0.521,0.086-0.815
			c0.023-0.301,0.041-0.619,0.047-0.971l0.033-1.34H200v6.176H198.621z"/>
	</g>
</g>
</svg>
