<?xml version="1.0" encoding="utf-8"?>
<!-- Generator: Adobe Illustrator 16.2.0, SVG Export Plug-In . SVG Version: 6.00 Build 0)  -->
<!DOCTYPE svg PUBLIC "-//W3C//DTD SVG 1.1//EN" "http://www.w3.org/Graphics/SVG/1.1/DTD/svg11.dtd">
<svg version="1.1" id="Слой_1" xmlns="http://www.w3.org/2000/svg" xmlns:xlink="http://www.w3.org/1999/xlink" x="0px" y="0px"
	 width="72px" height="14px" viewBox="0 0 72 14" enable-background="new 0 0 72 14" xml:space="preserve">
<g>
	<g>
		<polygon fill="#FFFFFF" points="6.545,8.189 0,5.121 0.003,8.231 6.545,11.45 		"/>
		<polygon fill="#434343" points="7.078,8.255 7.078,11.447 15.222,8.363 15.226,5.973 		"/>
		<polygon fill="#FFFFFF" points="7.033,0.302 4.302,0 4.302,2.474 7.033,3.204 		"/>
		<polygon fill="#434343" points="7.567,0.338 7.567,3.189 10.891,2.375 10.893,0 		"/>
		<polygon fill="#FFFFFF" points="8.56,3.977 2.765,2.832 2.769,5.43 8.56,6.92 		"/>
		<polygon fill="#434343" points="9.095,3.919 9.095,6.827 12.249,4.978 12.263,2.631 		"/>
	</g>
	<g>
		<path fill="#FFFFFF" d="M18.056,0.104h3.09c2.056,0.016,2.981,0.623,3.026,2.75c0,1.49-0.591,2.373-1.786,2.645
			c0.62,0.063,1.043,0.274,1.269,0.656c0.395,0.694,0.334,2.08,0.383,3.191c0.029,0.608,0.089,1.199,0.177,1.747h-1.587
			c-0.091-0.455-0.119-0.958-0.136-1.534c-0.029-0.912-0.018-2.492-0.363-2.995c-0.194-0.305-0.682-0.471-1.438-0.471h-1.104v5
			h-1.53V0.104z M20.555,4.919c1.557-0.028,1.998-0.348,2.041-1.958c0-1.205-0.527-1.688-1.722-1.688h-1.289v3.646H20.555z"/>
		<path fill="#FFFFFF" d="M25.519,7.326c0-2.343,0.363-4.047,2.801-4.047c2.437,0,2.66,1.521,2.66,3.878
			c0,2.402-0.192,4.089-2.721,4.089C25.764,11.246,25.519,9.729,25.519,7.326 M29.543,7.263c0-1.322,0.169-2.995-1.255-2.995
			c-1.454,0-1.332,1.733-1.332,3.042c0,1.855,0.045,2.979,1.302,2.979C29.47,10.288,29.543,9.286,29.543,7.263"/>
		<path fill="#FFFFFF" d="M31.996,8.953l1.422-0.212c0,0.988,0.334,1.547,1.06,1.547c0.697,0,1.065-0.361,1.065-1.093
			c0-0.88-0.548-1.11-1.475-1.612c-1.242-0.686-1.918-1.019-1.918-2.25c0-1.397,1.046-2.054,2.404-2.054
			c1.561,0,2.259,0.623,2.328,2.083l-1.403,0.199c0.076-1.021-0.396-1.369-0.985-1.369c-0.62,0-0.938,0.335-0.938,0.971
			c0,0.745,0.649,1.037,1.59,1.554c1.164,0.636,1.801,0.972,1.801,2.265c0,1.507-0.849,2.264-2.528,2.264
			C32.736,11.246,31.982,10.396,31.996,8.953"/>
		<path fill="#434343" d="M38.397,7.369V0.104h1.511v7.159c0,1.554,0.199,2.86,1.836,2.86c1.65,0,1.828-1.279,1.828-2.783V0.104
			h1.486V7.49c0,2.496-0.787,3.801-3.33,3.801C39.111,11.291,38.397,9.88,38.397,7.369"/>
		<path fill="#434343" d="M46.967,5.195c0-0.836-0.014-1.43-0.059-1.763h1.393l0.025,0.912c0.408-0.714,1.061-1.065,1.91-1.065
			c2.102,0,2.16,2.006,2.16,3.909c0,2.054-0.197,4.059-2.27,4.059c-0.781,0-1.377-0.348-1.738-0.943V14h-1.422V5.195z M50.965,7.142
			c0-1.2,0.025-2.874-1.254-2.874c-1.352,0-1.352,1.763-1.352,3.072c0,1.308,0.061,2.935,1.359,2.935
			C50.975,10.274,50.965,8.327,50.965,7.142"/>
		<path fill="#434343" d="M53.432,8.968c0-2.083,1.422-2.615,3.445-2.615h0.393V5.985c0-0.972-0.012-1.745-1.041-1.745
			c-0.742,0-1.133,0.345-1.133,1.181l-1.408-0.195c0.043-1.325,0.969-1.948,2.602-1.948c1.813,0,2.373,0.776,2.373,2.554v2.771
			c0,1.001,0.033,1.822,0.08,2.491h-1.348l-0.031-1.004c-0.453,0.746-1.102,1.154-1.998,1.154
			C54.02,11.246,53.432,10.288,53.432,8.968 M57.27,8.177V7.279h-0.393c-1.342,0-1.996,0.517-1.996,1.564
			c0,0.927,0.352,1.431,1.031,1.431C56.816,10.274,57.27,9.56,57.27,8.177"/>
		<path fill="#434343" d="M60.104,7.476c0-2.312,0.258-4.197,2.766-4.197c1.748,0,2.408,0.714,2.471,2.375l-1.377,0.214
			c0-0.869-0.182-1.599-1.104-1.599c-1.33,0-1.318,1.672-1.318,2.98c0,1.78,0.074,3.04,1.271,3.04c0.77,0,1.166-0.548,1.182-1.684
			l1.361,0.222c-0.063,1.617-0.771,2.42-2.527,2.42C60.438,11.246,60.104,9.785,60.104,7.476"/>
		<path fill="#434343" d="M66.568,0.104h1.422v10.992h-1.422V0.104z M68.039,6.792l2.129-3.36h1.572l-2.207,3.315L72,11.094h-1.619
			L68.039,6.792z"/>
	</g>
</g>
</svg>
